<svg height="12" viewBox="0 0 12 12" width="12" xmlns="http://www.w3.org/2000/svg"><path d="m3.60486756.00162755 4.54930464-.00162755c1.33727811 0 1.82220747.13923842 2.3110964.40069906.4888888.26146064.8725717.6451435 1.1340323 1.13403238l.0922854.18482021c.2018093.43861897.3084137.9561578.3084137 2.12627615v4.3083444c0 1.33727811-.1392384 1.82220747-.4006991 2.3110964-.2614606.4888888-.6451435.8725717-1.1340323 1.1340323l-.1848203.0922854c-.43861892.2018093-.95615775.3084137-2.1262761.3084137h-4.3083444c-1.33727811 0-1.82220747-.1392384-2.31109636-.4006991-.48888888-.2614606-.87257174-.6451435-1.13403238-1.1340323l-.09228534-.1848203c-.18739436-.407289-.29269878-.88262629-.30678617-1.88531586l-.00162755-4.54930464c0-1.33727811.13923842-1.82220747.40069906-2.31109636.26146064-.48888888.6451435-.87257174 1.13403238-1.13403238l.18482021-.09228534c.40728905-.18739436.88262634-.29269878 1.88531591-.30678617zm6.42546254 2.96804236c-.26626658-.26626656-.68293026-.29047261-.97654175-.07261815l-.08411844.07261815-3.96966991 3.96933009-1.46966991-1.46933009-.08411844-.07261815c-.29361149-.21785446-.71027517-.19364841-.97654174.07261815-.26626656.26626657-.29047261.68293025-.07261815.97654174l.07261815.08411844 2 2 .08411844.07261815c.26098799.19364841.61920241.19603913.88259105.00717216l.09395069-.07979031 4.50000001-4.5.0726181-.08411844c.2178545-.29361149.1936484-.71027517-.0726181-.97654174z" fill="#8197af" fill-rule="evenodd"/></svg>