<svg height="10" viewBox="0 0 16 10" width="16" xmlns="http://www.w3.org/2000/svg"><path d="m8 0c2.8897625 0 5.2230958 1.66666667 7 5-1.7769042 3.33333333-4.1102375 5-7 5-2.88976248 0-5.22309581-1.66666667-7-5 1.77690419-3.33333333 4.11023752-5 7-5zm0 1.48148148c-1.98523978 0-3.59459459 1.5752944-3.59459459 3.51851852s1.60935481 3.51851852 3.59459459 3.51851852 3.5945946-1.5752944 3.5945946-3.51851852-1.60935482-3.51851852-3.5945946-3.51851852zm0 1.85185185c.94037674 0 1.7027027.74619209 1.7027027 1.66666667s-.76232596 1.66666667-1.7027027 1.66666667-1.7027027-.74619209-1.7027027-1.66666667.76232596-1.66666667 1.7027027-1.66666667z" fill="#8197af" fill-rule="evenodd"/></svg>